<!DOCTYPE svg PUBLIC "-//W3C//DTD SVG 20010904//EN"
 "http://www.w3.org/TR/2001/REC-SVG-20010904/DTD/svg10.dtd">
<svg version="1.0" xmlns="http://www.w3.org/2000/svg"
 width="512.000000pt" height="292.000000pt" viewBox="0 0 512.000000 292.000000"
 preserveAspectRatio="xMidYMid meet">

<g transform="translate(0.000000,292.000000) scale(0.100000,-0.100000)"
fill="red" stroke="none">
<path d="M1874 2807 c-98 -54 -201 -111 -229 -127 -27 -15 -185 -101 -350
-192 -165 -91 -437 -241 -605 -333 -168 -93 -388 -214 -490 -270 l-185 -102
-1 -786 c0 -433 1 -787 3 -787 6 0 195 100 208 110 6 4 127 72 270 150 324
178 636 350 695 382 151 84 574 317 935 515 165 91 314 173 330 183 28 17 146
82 795 437 223 123 361 199 775 428 159 88 712 392 795 437 30 16 61 35 68 42
10 9 -294 12 -1411 12 l-1423 0 -180 -99z m165 -296 c12 -16 21 -36 21 -44 0
-9 -32 -33 -72 -56 -108 -60 -102 -52 -76 -98 l24 -41 69 39 c39 21 73 38 77
39 8 0 48 -64 48 -78 0 -6 -31 -27 -70 -48 -38 -20 -70 -42 -70 -48 0 -15 38
-76 47 -76 5 0 44 21 87 45 44 25 85 44 92 41 13 -5 50 -74 43 -80 -9 -7 -255
-142 -271 -148 -19 -8 -13 -19 -182 290 -37 67 -66 127 -64 133 3 10 252 155
270 158 4 1 16 -12 27 -28z m-444 -401 c111 -207 92 -191 174 -147 38 20 73
37 79 37 10 0 52 -69 52 -84 0 -7 -240 -136 -253 -136 -10 0 -64 91 -211 361
l-36 66 48 26 c26 15 52 26 57 26 6 0 46 -67 90 -149z m-274 -132 c227 -204
261 -237 256 -245 -3 -4 -26 -19 -51 -33 l-46 -24 -33 32 c-18 18 -38 32 -44
32 -6 0 -46 -19 -88 -41 l-76 -41 6 -42 c4 -22 8 -45 9 -50 1 -12 -93 -71
-101 -63 -11 12 -94 510 -86 518 10 10 116 69 124 69 3 0 61 -50 130 -112z
m-441 -148 c23 -45 20 -60 -14 -60 -37 0 -113 -30 -141 -56 -22 -20 -24 -27
-14 -45 12 -23 24 -23 154 0 91 17 146 -12 180 -93 19 -45 13 -86 -21 -138
-18 -28 -44 -47 -106 -77 -46 -22 -98 -42 -115 -45 -29 -5 -35 -1 -58 32 -40
58 -37 62 50 77 85 14 154 69 134 107 -12 22 -38 23 -126 2 -79 -18 -121 -13
-163 22 -38 32 -63 110 -50 155 17 57 99 122 190 150 58 17 78 11 100 -31z
m1222 -41 c32 -120 18 -141 -51 -75 l-43 41 6 -40 c4 -22 10 -50 12 -61 11
-44 -23 -33 -85 27 -34 32 -61 63 -61 69 0 21 27 9 65 -30 21 -22 40 -38 41
-37 2 2 -3 27 -11 57 -22 84 -4 92 63 28 40 -39 44 -40 39 -18 -3 14 -9 45
-13 69 -11 69 18 47 38 -30z m-254 -105 c24 -16 52 -64 52 -88 0 -8 -12 -28
-26 -45 -41 -49 -108 -40 -139 19 -22 43 -19 68 14 101 33 32 65 37 99 13z
m-157 -142 c34 -63 38 -73 23 -79 -9 -3 -40 6 -70 20 -30 15 -54 25 -54 22 0
-2 9 -19 20 -37 23 -38 25 -58 7 -58 -12 0 -87 122 -87 142 0 21 31 17 79 -11
29 -17 54 -31 56 -31 3 0 -7 20 -21 45 -23 42 -25 70 -3 63 5 -2 28 -36 50
-76z m-246 -127 c51 -95 42 -111 -39 -65 -31 18 -56 29 -56 25 0 -4 10 -25 22
-46 12 -21 19 -42 15 -45 -14 -14 -36 8 -68 70 -45 87 -33 102 45 57 61 -34
67 -30 35 23 -19 32 -19 56 -1 56 4 0 25 -34 47 -75z m-196 -61 c32 -23 53
-77 42 -106 -14 -36 -48 -61 -83 -61 -62 0 -113 97 -75 145 30 39 79 48 116
22z"/>
<path d="M1193 1914 c5 -16 27 -132 27 -141 0 -1 20 7 45 19 25 12 45 25 45
30 0 8 -97 101 -112 107 -6 2 -8 -5 -5 -15z"/>
<path d="M1770 1650 c-25 -25 -25 -41 1 -74 35 -45 89 -30 89 26 0 30 -31 68
-55 68 -8 0 -24 -9 -35 -20z"/>
<path d="M1170 1322 c-18 -14 -21 -25 -16 -45 18 -74 106 -76 106 -2 0 17 -43
65 -58 65 -6 0 -20 -8 -32 -18z"/>
</g>
</svg>
